<svg id="visual" viewBox="0 0 1368 768" width="1368" height="768" xmlns="http://www.w3.org/2000/svg" xmlns:xlink="http://www.w3.org/1999/xlink" version="1.1"><path d="M0 507L32.5 512.2C65 517.3 130 527.7 195.2 526.7C260.3 525.7 325.7 513.3 390.8 506.5C456 499.7 521 498.3 586.2 508C651.3 517.7 716.7 538.3 781.8 543.7C847 549 912 539 977.2 538.3C1042.3 537.7 1107.7 546.3 1172.8 538.8C1238 531.3 1303 507.7 1335.5 495.8L1368 484L1368 769L1335.5 769C1303 769 1238 769 1172.8 769C1107.7 769 1042.3 769 977.2 769C912 769 847 769 781.8 769C716.7 769 651.3 769 586.2 769C521 769 456 769 390.8 769C325.7 769 260.3 769 195.2 769C130 769 65 769 32.5 769L0 769Z" fill="#fa7268"></path><path d="M0 511L32.5 518.5C65 526 130 541 195.2 554.7C260.3 568.3 325.7 580.7 390.8 572.2C456 563.7 521 534.3 586.2 530.7C651.3 527 716.7 549 781.8 554C847 559 912 547 977.2 539.3C1042.3 531.7 1107.7 528.3 1172.8 523.7C1238 519 1303 513 1335.5 510L1368 507L1368 769L1335.5 769C1303 769 1238 769 1172.8 769C1107.7 769 1042.3 769 977.2 769C912 769 847 769 781.8 769C716.7 769 651.3 769 586.2 769C521 769 456 769 390.8 769C325.7 769 260.3 769 195.2 769C130 769 65 769 32.5 769L0 769Z" fill="#ef5f67"></path><path d="M0 566L32.5 566C65 566 130 566 195.2 567.8C260.3 569.7 325.7 573.3 390.8 574.8C456 576.3 521 575.7 586.2 573.5C651.3 571.3 716.7 567.7 781.8 569.5C847 571.3 912 578.7 977.2 589.5C1042.3 600.3 1107.7 614.7 1172.8 621C1238 627.3 1303 625.7 1335.5 624.8L1368 624L1368 769L1335.5 769C1303 769 1238 769 1172.8 769C1107.7 769 1042.3 769 977.2 769C912 769 847 769 781.8 769C716.7 769 651.3 769 586.2 769C521 769 456 769 390.8 769C325.7 769 260.3 769 195.2 769C130 769 65 769 32.5 769L0 769Z" fill="#e34c67"></path><path d="M0 667L32.5 663.3C65 659.7 130 652.3 195.2 644.2C260.3 636 325.7 627 390.8 634.5C456 642 521 666 586.2 672.2C651.3 678.3 716.7 666.7 781.8 655.3C847 644 912 633 977.2 633.8C1042.3 634.7 1107.7 647.3 1172.8 653.3C1238 659.3 1303 658.7 1335.5 658.3L1368 658L1368 769L1335.5 769C1303 769 1238 769 1172.8 769C1107.7 769 1042.3 769 977.2 769C912 769 847 769 781.8 769C716.7 769 651.3 769 586.2 769C521 769 456 769 390.8 769C325.7 769 260.3 769 195.2 769C130 769 65 769 32.5 769L0 769Z" fill="#d53867"></path><path d="M0 698L32.5 700.3C65 702.7 130 707.3 195.2 704C260.3 700.7 325.7 689.3 390.8 683.5C456 677.7 521 677.3 586.2 684.7C651.3 692 716.7 707 781.8 715C847 723 912 724 977.2 725.7C1042.3 727.3 1107.7 729.7 1172.8 725.2C1238 720.7 1303 709.3 1335.5 703.7L1368 698L1368 769L1335.5 769C1303 769 1238 769 1172.8 769C1107.7 769 1042.3 769 977.2 769C912 769 847 769 781.8 769C716.7 769 651.3 769 586.2 769C521 769 456 769 390.8 769C325.7 769 260.3 769 195.2 769C130 769 65 769 32.5 769L0 769Z" fill="#c62368"></path></svg>